<svg id="svg" version="1.1" xmlns="http://www.w3.org/2000/svg" xmlns:xlink="http://www.w3.org/1999/xlink" width="50" height="50" viewBox="0, 0, 400,410.3448275862069"><g id="svgg"><path id="path0" d="M49.452 25.300 C 49.003 26.974,49.171 377.679,49.621 379.300 L 50.038 380.800 93.200 380.800 L 136.362 380.800 136.779 379.300 C 137.229 377.679,137.403 267.394,136.957 266.233 C 136.513 265.074,122.249 265.309,121.423 266.489 C 120.868 267.281,120.800 272.457,120.800 314.068 L 120.800 360.759 119.869 361.763 C 118.182 363.583,117.935 363.600,92.634 363.600 C 67.206 363.600,66.470 363.550,65.655 361.761 C 64.918 360.143,65.010 42.813,65.748 41.803 C 66.621 40.610,69.409 40.470,93.080 40.434 C 116.203 40.398,118.559 40.545,120.019 42.113 C 120.785 42.934,120.800 43.898,120.800 91.261 C 120.800 138.972,120.810 139.577,121.591 139.995 C 122.087 140.261,125.104 140.377,129.691 140.309 L 137.000 140.200 137.113 83.600 C 137.176 52.470,137.123 26.415,136.995 25.700 L 136.764 24.400 93.229 24.400 L 49.693 24.400 49.452 25.300 M259.852 25.300 C 259.719 25.795,259.608 55.108,259.605 90.440 C 259.600 157.996,259.637 156.568,257.828 158.081 C 257.049 158.732,252.478 158.774,181.108 158.787 C 96.861 158.801,103.171 159.012,101.200 156.124 L 100.200 154.659 100.000 107.229 C 99.826 65.972,99.721 59.644,99.195 58.600 L 98.591 57.400 93.225 57.288 L 87.859 57.176 86.329 58.669 L 84.800 60.162 84.800 115.543 L 84.800 170.924 86.417 172.462 L 88.034 174.000 181.123 174.000 L 274.212 174.000 274.906 172.046 C 275.939 169.137,275.986 26.961,274.954 25.386 L 274.308 24.400 267.201 24.400 C 260.168 24.400,260.091 24.409,259.852 25.300 M297.664 25.419 C 296.917 27.059,297.004 174.139,297.752 174.760 C 298.134 175.077,300.520 175.185,305.452 175.109 L 312.600 175.000 312.800 108.800 C 312.910 72.390,313.149 42.298,313.332 41.928 C 314.444 39.679,331.187 39.734,332.395 41.991 C 332.666 42.498,332.802 98.003,332.807 210.074 L 332.813 377.400 334.574 379.100 L 336.334 380.800 341.488 380.800 L 346.642 380.800 347.323 378.900 C 348.327 376.098,348.381 26.722,347.377 25.289 L 346.755 24.400 322.442 24.400 L 298.128 24.400 297.664 25.419 M84.178 194.513 C 84.070 194.796,84.030 198.261,84.090 202.213 L 84.200 209.400 189.639 209.600 C 277.664 209.767,295.185 209.890,295.732 210.343 C 297.170 211.537,297.196 212.884,297.196 287.200 C 297.197 369.565,297.449 362.730,294.391 363.342 C 292.280 363.764,279.021 363.635,277.715 363.180 C 275.503 362.409,275.600 365.453,275.600 296.935 C 275.600 237.378,275.554 232.977,274.906 231.154 L 274.212 229.200 179.356 229.200 L 84.500 229.200 84.250 230.450 C 83.922 232.089,83.924 346.720,84.252 348.359 L 84.504 349.618 91.548 349.509 L 98.593 349.400 99.277 348.000 C 99.911 346.703,99.963 343.026,99.981 298.094 L 100.000 249.588 101.369 248.094 L 102.738 246.600 179.669 246.489 C 221.981 246.428,257.002 246.476,257.493 246.595 C 259.710 247.133,259.600 243.644,259.602 313.480 C 259.604 356.832,259.740 378.289,260.021 379.300 L 260.438 380.800 286.394 380.800 L 312.351 380.800 312.591 379.100 C 312.723 378.165,312.779 336.180,312.715 285.800 L 312.600 194.200 198.488 194.099 C 105.821 194.018,84.338 194.095,84.178 194.513 " stroke="none" fill="#f5fafa" fill-rule="evenodd"></path><path id="path1" d="M48.789 23.300 C 48.019 24.996,47.483 376.115,48.244 379.922 C 48.874 383.070,44.653 382.800,93.200 382.800 C 141.747 382.800,137.526 383.070,138.156 379.922 C 138.903 376.187,138.384 266.202,137.611 264.500 L 136.839 262.800 129.593 262.800 C 122.164 262.800,121.595 262.901,119.829 264.538 C 117.968 266.263,118.000 265.403,118.000 314.017 L 118.000 360.382 117.056 361.000 C 115.725 361.872,68.520 361.730,67.461 360.851 C 66.440 360.003,66.440 43.597,67.461 42.749 C 68.334 42.024,114.110 41.691,116.500 42.392 L 118.000 42.832 118.013 91.116 C 118.023 128.980,118.133 139.541,118.523 140.054 C 120.196 142.252,135.408 143.028,137.418 141.018 L 138.400 140.036 138.391 82.518 C 138.383 26.568,138.361 24.954,137.611 23.300 L 136.839 21.600 93.200 21.600 L 49.561 21.600 48.789 23.300 M259.078 23.500 L 258.200 25.400 258.000 90.200 C 257.890 125.840,257.654 155.225,257.476 155.500 C 257.219 155.897,241.485 156.000,181.012 156.000 L 104.871 156.000 103.836 154.769 L 102.800 153.539 102.800 107.436 C 102.800 58.079,102.784 57.649,100.862 56.200 C 99.445 55.133,85.238 54.962,84.266 56.000 C 82.818 57.549,82.800 58.262,82.800 115.513 C 82.800 175.652,82.760 174.431,84.775 175.338 C 86.254 176.004,273.314 176.214,274.915 175.552 C 277.113 174.643,276.992 178.826,277.111 99.800 C 277.212 32.933,277.163 26.044,276.578 24.499 C 275.519 21.704,275.178 21.600,267.089 21.600 L 259.955 21.600 259.078 23.500 M297.320 22.500 C 296.869 22.995,296.297 23.793,296.050 24.274 C 295.721 24.912,295.600 45.343,295.600 100.013 L 295.600 174.879 296.842 176.040 L 298.085 177.200 305.222 177.200 L 312.359 177.200 313.380 175.862 L 314.400 174.524 314.400 108.742 C 314.400 58.112,314.511 42.849,314.880 42.480 C 315.533 41.827,328.751 41.813,330.179 42.463 L 331.195 42.926 331.298 211.563 C 331.354 304.313,331.545 380.491,331.722 380.846 C 332.363 382.131,334.133 382.509,340.437 382.707 L 346.673 382.902 348.037 381.684 L 349.400 380.466 349.509 203.333 C 349.609 41.477,349.563 26.053,348.976 24.499 C 347.812 21.419,349.472 21.600,322.381 21.600 L 298.139 21.600 297.320 22.500 M137.299 24.400 C 138.317 26.437,138.393 138.861,137.377 140.311 C 136.445 141.642,122.684 141.688,120.547 140.367 L 119.200 139.535 119.187 91.267 L 119.175 43.000 118.087 42.200 C 116.397 40.956,68.318 40.946,66.900 42.189 L 66.000 42.978 66.000 201.827 C 66.000 352.619,66.036 360.706,66.700 361.269 C 68.376 362.689,70.291 362.800,93.152 362.800 C 116.692 362.800,116.189 362.835,118.300 361.030 L 119.200 360.261 119.200 313.611 L 119.200 266.962 120.727 265.472 L 122.253 263.981 129.427 264.090 L 136.600 264.200 137.304 265.600 C 138.228 267.438,138.210 379.081,137.286 380.700 L 136.772 381.600 93.200 381.600 L 49.628 381.600 49.114 380.700 C 48.181 379.066,48.376 25.307,49.310 23.881 L 50.021 22.796 93.310 22.898 L 136.600 23.000 137.299 24.400 M275.230 23.832 L 276.200 24.864 276.312 97.732 C 276.428 172.656,276.412 173.493,274.876 174.661 C 273.980 175.341,89.609 175.451,86.447 174.773 C 83.439 174.128,83.600 177.481,83.600 115.600 C 83.600 53.719,83.439 57.072,86.447 56.427 C 89.073 55.864,98.090 55.876,99.337 56.444 C 101.477 57.419,101.385 55.361,101.600 106.658 C 101.797 153.592,101.812 154.330,102.599 155.199 C 104.520 157.321,99.738 157.200,181.370 157.200 L 257.179 157.200 257.890 155.900 C 258.559 154.674,258.611 150.898,258.800 89.782 C 258.989 28.598,259.040 24.904,259.709 23.882 L 260.418 22.800 267.339 22.800 L 274.261 22.800 275.230 23.832 M347.630 23.832 L 348.600 24.864 348.600 202.150 C 348.600 373.182,348.574 379.475,347.869 380.551 L 347.138 381.666 340.383 381.533 C 334.542 381.418,333.530 381.303,332.913 380.686 C 332.232 380.003,332.191 372.475,332.000 211.400 C 331.809 50.342,331.768 42.797,331.087 42.114 C 330.463 41.490,329.438 41.384,322.921 41.275 L 315.469 41.149 314.535 42.157 L 313.600 43.165 313.587 108.883 C 313.577 162.893,313.480 174.725,313.043 175.300 C 312.289 176.293,298.692 176.360,297.289 175.377 L 296.400 174.755 296.400 99.899 L 296.400 25.044 297.475 23.922 L 298.550 22.800 322.605 22.800 L 346.661 22.800 347.630 23.832 M83.382 193.382 C 81.813 194.951,81.854 208.490,83.434 210.367 L 84.467 211.596 189.023 211.698 L 293.578 211.800 294.489 212.711 L 295.400 213.622 295.504 286.959 C 295.601 354.907,295.560 360.336,294.944 360.848 C 294.065 361.578,280.913 361.880,278.712 361.221 L 277.216 360.773 277.108 295.142 L 277.000 229.512 275.615 228.356 L 274.230 227.200 179.498 227.200 L 84.765 227.200 83.683 228.204 L 82.600 229.208 82.600 289.372 L 82.600 349.536 83.570 350.568 L 84.539 351.600 91.632 351.600 C 100.598 351.600,101.645 351.218,102.355 347.683 C 102.667 346.129,102.800 331.142,102.800 297.556 L 102.800 249.645 103.689 249.023 C 105.061 248.062,257.388 248.072,257.757 249.033 C 257.891 249.381,258.000 278.241,258.000 313.166 C 258.000 379.211,258.024 380.217,259.669 381.982 C 260.431 382.799,260.638 382.805,286.475 382.703 L 312.514 382.600 313.357 381.471 L 314.200 380.341 314.303 287.432 L 314.405 194.522 313.422 193.461 L 312.438 192.400 198.401 192.400 L 84.364 192.400 83.382 193.382 M313.140 194.100 C 313.894 195.527,313.609 380.026,312.851 380.939 C 312.351 381.541,309.989 381.600,286.165 381.600 L 260.028 381.600 259.514 380.700 C 259.102 379.979,258.979 366.837,258.893 314.675 C 258.796 255.810,258.725 249.457,258.147 248.575 L 257.508 247.600 181.013 247.600 L 104.518 247.600 103.159 248.516 L 101.800 249.432 101.600 298.416 C 101.385 350.985,101.454 349.391,99.361 350.345 C 97.908 351.007,84.555 350.968,84.126 350.300 C 82.885 348.366,82.835 346.067,82.818 289.446 C 82.800 232.626,82.844 230.582,84.119 228.900 C 84.420 228.502,103.995 228.400,179.640 228.400 L 274.782 228.400 275.491 229.482 C 276.161 230.506,276.206 234.113,276.305 295.556 C 276.397 352.694,276.482 360.628,277.010 361.211 C 279.068 363.485,294.267 363.283,295.788 360.962 C 296.488 359.894,296.542 214.359,295.843 212.496 C 295.651 211.983,295.048 211.494,294.452 211.368 C 293.873 211.245,292.987 210.977,292.481 210.772 C 291.922 210.546,250.962 210.400,187.945 210.400 L 84.328 210.400 83.577 209.500 C 82.481 208.185,82.417 195.677,83.500 194.188 L 84.200 193.225 198.432 193.213 L 312.665 193.200 313.140 194.100 " stroke="none" fill="#94e4e4" fill-rule="evenodd"></path><path id="path2" d="M396.400 205.000 L 396.400 410.000 398.200 410.000 L 400.000 410.000 400.000 205.000 L 400.000 0.000 398.200 0.000 L 396.400 0.000 396.400 205.000 M48.449 20.751 C 46.714 22.486,46.741 19.420,46.873 204.400 C 47.005 387.838,46.954 382.287,48.525 383.286 C 48.786 383.452,68.928 383.591,93.284 383.594 L 137.569 383.600 138.347 382.765 C 139.586 381.435,139.664 377.215,139.527 318.600 C 139.409 268.262,139.349 264.107,138.719 262.956 C 137.616 260.942,136.503 260.716,128.538 260.889 C 119.788 261.078,118.587 261.411,117.316 264.000 L 116.433 265.800 116.416 313.057 C 116.402 355.771,116.339 360.338,115.767 360.557 C 114.944 360.873,71.280 360.864,70.100 360.548 L 69.200 360.307 69.200 201.761 L 69.200 43.215 70.100 42.997 C 70.595 42.877,81.170 42.829,93.600 42.889 L 116.200 43.000 116.295 91.400 C 116.397 143.454,116.293 141.119,118.553 142.073 C 120.378 142.843,136.659 142.819,138.113 142.044 C 139.679 141.210,139.656 142.243,139.523 80.200 C 139.390 18.228,139.491 21.058,137.382 20.248 C 135.453 19.508,49.204 19.996,48.449 20.751 M258.845 20.683 C 257.295 21.938,257.227 24.862,257.213 90.501 L 257.200 154.002 180.900 153.901 L 104.600 153.800 104.400 105.111 C 104.202 56.937,104.191 56.414,103.392 55.615 C 102.116 54.338,98.534 53.895,91.000 54.082 C 83.653 54.265,82.604 54.528,82.105 56.312 C 81.713 57.712,81.703 173.456,82.095 174.849 C 82.735 177.129,76.863 177.000,180.234 177.000 L 275.468 177.000 277.095 175.873 C 279.503 174.204,279.374 178.302,279.498 99.417 L 279.613 25.834 278.608 23.780 C 276.828 20.142,277.045 20.217,267.831 20.078 C 260.498 19.967,259.660 20.023,258.845 20.683 M296.800 20.439 C 296.250 20.650,295.215 21.762,294.500 22.909 L 293.200 24.995 293.200 99.897 L 293.200 174.799 295.348 177.000 L 297.496 179.200 305.049 179.200 L 312.603 179.200 313.801 177.930 L 315.000 176.660 315.105 109.721 L 315.209 42.782 322.505 42.891 L 329.800 43.000 330.003 212.000 C 330.114 304.950,330.355 381.383,330.537 381.851 C 331.128 383.371,332.448 383.600,340.625 383.600 L 348.412 383.600 349.844 382.288 C 350.869 381.348,351.373 380.468,351.620 379.188 C 351.810 378.204,351.973 298.350,351.983 201.579 L 352.000 25.757 350.991 23.732 C 349.064 19.866,351.730 20.210,323.058 20.127 C 307.671 20.083,297.409 20.204,296.800 20.439 M137.611 23.300 C 138.361 24.954,138.383 26.568,138.391 82.518 L 138.400 140.036 137.418 141.018 C 135.408 143.028,120.196 142.252,118.523 140.054 C 118.133 139.541,118.023 128.980,118.013 91.116 L 118.000 42.832 116.500 42.392 C 114.110 41.691,68.334 42.024,67.461 42.749 C 66.440 43.597,66.440 360.003,67.461 360.851 C 68.520 361.730,115.725 361.872,117.056 361.000 L 118.000 360.382 118.000 314.017 C 118.000 265.403,117.968 266.263,119.829 264.538 C 121.595 262.901,122.164 262.800,129.593 262.800 L 136.839 262.800 137.611 264.500 C 138.384 266.202,138.903 376.187,138.156 379.922 C 137.526 383.070,141.747 382.800,93.200 382.800 C 44.653 382.800,48.874 383.070,48.244 379.922 C 47.483 376.115,48.019 24.996,48.789 23.300 L 49.561 21.600 93.200 21.600 L 136.839 21.600 137.611 23.300 M275.078 22.199 C 277.342 23.785,277.232 19.577,277.111 99.800 C 276.992 178.826,277.113 174.643,274.915 175.552 C 273.314 176.214,86.254 176.004,84.775 175.338 C 82.760 174.431,82.800 175.652,82.800 115.513 C 82.800 58.262,82.818 57.549,84.266 56.000 C 85.238 54.962,99.445 55.133,100.862 56.200 C 102.784 57.649,102.800 58.079,102.800 107.436 L 102.800 153.539 103.836 154.769 L 104.871 156.000 181.012 156.000 C 241.485 156.000,257.219 155.897,257.476 155.500 C 257.654 155.225,257.890 125.840,258.000 90.200 L 258.200 25.400 259.078 23.500 L 259.955 21.600 267.089 21.600 C 272.778 21.600,274.395 21.721,275.078 22.199 M347.478 22.199 C 349.787 23.817,349.629 9.729,349.509 203.333 L 349.400 380.466 348.037 381.684 L 346.673 382.902 340.437 382.707 C 334.133 382.509,332.363 382.131,331.722 380.846 C 331.545 380.491,331.354 304.313,331.298 211.563 L 331.195 42.926 330.179 42.463 C 328.751 41.813,315.533 41.827,314.880 42.480 C 314.511 42.849,314.400 58.112,314.400 108.742 L 314.400 174.524 313.380 175.862 L 312.359 177.200 305.222 177.200 L 298.085 177.200 296.842 176.040 L 295.600 174.879 295.600 100.013 C 295.600 45.343,295.721 24.912,296.050 24.274 C 296.297 23.793,296.869 22.995,297.320 22.500 L 298.139 21.600 322.381 21.600 C 343.269 21.600,346.740 21.683,347.478 22.199 M83.690 191.882 C 81.716 192.264,81.532 193.236,81.671 202.552 L 81.800 211.157 83.178 212.579 L 84.557 214.000 188.216 214.000 C 288.132 214.000,291.900 214.026,292.538 214.731 C 293.149 215.406,293.200 221.057,293.200 287.885 L 293.200 360.307 292.300 360.548 C 291.805 360.681,289.150 360.789,286.400 360.789 C 283.650 360.789,280.995 360.681,280.500 360.548 L 279.600 360.307 279.583 296.453 C 279.564 228.032,279.616 229.703,277.444 227.712 L 276.012 226.400 180.106 226.405 C 75.630 226.411,82.583 226.274,81.984 228.346 C 81.144 231.254,81.659 351.030,82.515 351.886 C 83.506 352.875,100.263 352.972,102.188 352.000 C 104.500 350.833,104.388 353.514,104.394 299.543 C 104.399 254.452,104.460 249.662,105.033 249.443 C 105.381 249.309,139.761 249.200,181.433 249.200 L 257.200 249.200 257.225 312.900 C 257.250 378.983,257.311 382.107,258.596 383.047 C 259.376 383.617,311.407 383.909,313.475 383.354 C 315.233 382.883,315.200 384.724,315.200 287.185 C 315.200 195.726,315.183 193.668,314.435 192.744 L 313.671 191.800 199.135 191.753 C 136.141 191.727,84.191 191.785,83.690 191.882 M313.422 193.461 L 314.405 194.522 314.303 287.432 L 314.200 380.341 313.357 381.471 L 312.514 382.600 286.475 382.703 C 260.638 382.805,260.431 382.799,259.669 381.982 C 258.024 380.217,258.000 379.211,258.000 313.166 C 258.000 278.241,257.891 249.381,257.757 249.033 C 257.388 248.072,105.061 248.062,103.689 249.023 L 102.800 249.645 102.800 297.556 C 102.800 331.142,102.667 346.129,102.355 347.683 C 101.645 351.218,100.598 351.600,91.632 351.600 L 84.539 351.600 83.570 350.568 L 82.600 349.536 82.600 289.372 L 82.600 229.208 83.683 228.204 L 84.765 227.200 179.498 227.200 L 274.230 227.200 275.615 228.356 L 277.000 229.512 277.108 295.142 L 277.216 360.773 278.712 361.221 C 280.913 361.880,294.065 361.578,294.944 360.848 C 295.560 360.336,295.601 354.907,295.504 286.959 L 295.400 213.622 294.489 212.711 L 293.578 211.800 189.023 211.698 L 84.467 211.596 83.434 210.367 C 81.854 208.490,81.813 194.951,83.382 193.382 L 84.364 192.400 198.401 192.400 L 312.438 192.400 313.422 193.461 " stroke="none" fill="#5bd4d4" fill-rule="evenodd"></path><path id="path3" d="M0.000 205.000 L 0.000 410.000 198.200 410.000 L 396.400 410.000 396.400 205.000 L 396.400 0.000 198.200 0.000 L 0.000 0.000 0.000 205.000 M137.382 20.248 C 139.491 21.058,139.390 18.228,139.523 80.200 C 139.656 142.243,139.679 141.210,138.113 142.044 C 136.659 142.819,120.378 142.843,118.553 142.073 C 116.293 141.119,116.397 143.454,116.295 91.400 L 116.200 43.000 93.600 42.889 C 81.170 42.829,70.595 42.877,70.100 42.997 L 69.200 43.215 69.200 201.761 L 69.200 360.307 70.100 360.548 C 71.280 360.864,114.944 360.873,115.767 360.557 C 116.339 360.338,116.402 355.771,116.416 313.057 L 116.433 265.800 117.316 264.000 C 118.587 261.411,119.788 261.078,128.538 260.889 C 136.503 260.716,137.616 260.942,138.719 262.956 C 139.349 264.107,139.409 268.262,139.527 318.600 C 139.664 377.215,139.586 381.435,138.347 382.765 L 137.569 383.600 93.284 383.594 C 68.928 383.591,48.786 383.452,48.525 383.286 C 46.954 382.287,47.005 387.838,46.873 204.400 C 46.741 19.420,46.714 22.486,48.449 20.751 C 49.204 19.996,135.453 19.508,137.382 20.248 M276.761 20.963 C 277.224 21.383,278.055 22.651,278.608 23.780 L 279.613 25.834 279.498 99.417 C 279.374 178.302,279.503 174.204,277.095 175.873 L 275.468 177.000 180.234 177.000 C 76.863 177.000,82.735 177.129,82.095 174.849 C 81.703 173.456,81.713 57.712,82.105 56.312 C 82.604 54.528,83.653 54.265,91.000 54.082 C 98.534 53.895,102.116 54.338,103.392 55.615 C 104.191 56.414,104.202 56.937,104.400 105.111 L 104.600 153.800 180.900 153.901 L 257.200 154.002 257.213 90.501 C 257.227 24.862,257.295 21.938,258.845 20.683 C 260.220 19.570,275.486 19.808,276.761 20.963 M349.149 20.954 C 349.607 21.369,350.436 22.619,350.991 23.732 L 352.000 25.757 351.983 201.579 C 351.973 298.350,351.810 378.204,351.620 379.188 C 351.373 380.468,350.869 381.348,349.844 382.288 L 348.412 383.600 340.625 383.600 C 332.448 383.600,331.128 383.371,330.537 381.851 C 330.355 381.383,330.114 304.950,330.003 212.000 L 329.800 43.000 322.505 42.891 L 315.209 42.782 315.105 109.721 L 315.000 176.660 313.801 177.930 L 312.603 179.200 305.049 179.200 L 297.496 179.200 295.348 177.000 L 293.200 174.799 293.200 99.897 L 293.200 24.995 294.500 22.909 C 295.215 21.762,296.250 20.650,296.800 20.439 C 298.950 19.612,348.202 20.097,349.149 20.954 M314.435 192.744 C 315.183 193.668,315.200 195.726,315.200 287.185 C 315.200 384.724,315.233 382.883,313.475 383.354 C 311.407 383.909,259.376 383.617,258.596 383.047 C 257.311 382.107,257.250 378.983,257.225 312.900 L 257.200 249.200 181.433 249.200 C 139.761 249.200,105.381 249.309,105.033 249.443 C 104.460 249.662,104.399 254.452,104.394 299.543 C 104.388 353.514,104.500 350.833,102.188 352.000 C 100.263 352.972,83.506 352.875,82.515 351.886 C 81.659 351.030,81.144 231.254,81.984 228.346 C 82.583 226.274,75.630 226.411,180.106 226.405 L 276.012 226.400 277.444 227.712 C 279.616 229.703,279.564 228.032,279.583 296.453 L 279.600 360.307 280.500 360.548 C 280.995 360.681,283.650 360.789,286.400 360.789 C 289.150 360.789,291.805 360.681,292.300 360.548 L 293.200 360.307 293.200 287.885 C 293.200 221.057,293.149 215.406,292.538 214.731 C 291.900 214.026,288.132 214.000,188.216 214.000 L 84.557 214.000 83.178 212.579 L 81.800 211.157 81.671 202.552 C 81.532 193.236,81.716 192.264,83.690 191.882 C 84.191 191.785,136.141 191.727,199.135 191.753 L 313.671 191.800 314.435 192.744 " stroke="none" fill="#2cc4c4" fill-rule="evenodd"></path><path id="path4" d="M49.310 23.881 C 48.376 25.307,48.181 379.066,49.114 380.700 L 49.628 381.600 93.200 381.600 L 136.772 381.600 137.286 380.700 C 138.210 379.081,138.228 267.438,137.304 265.600 L 136.600 264.200 129.427 264.090 L 122.253 263.981 120.727 265.472 L 119.200 266.962 119.200 313.611 L 119.200 360.261 118.300 361.030 C 116.189 362.835,116.692 362.800,93.152 362.800 C 70.291 362.800,68.376 362.689,66.700 361.269 C 66.036 360.706,66.000 352.619,66.000 201.827 L 66.000 42.978 66.900 42.189 C 68.318 40.946,116.397 40.956,118.087 42.200 L 119.175 43.000 119.187 91.267 L 119.200 139.535 120.547 140.367 C 122.684 141.688,136.445 141.642,137.377 140.311 C 138.393 138.861,138.317 26.437,137.299 24.400 L 136.600 23.000 93.310 22.898 L 50.021 22.796 49.310 23.881 M259.709 23.882 C 259.040 24.904,258.989 28.598,258.800 89.782 C 258.611 150.898,258.559 154.674,257.890 155.900 L 257.179 157.200 181.370 157.200 C 99.738 157.200,104.520 157.321,102.599 155.199 C 101.812 154.330,101.797 153.592,101.600 106.658 C 101.385 55.361,101.477 57.419,99.337 56.444 C 98.090 55.876,89.073 55.864,86.447 56.427 C 83.439 57.072,83.600 53.719,83.600 115.600 C 83.600 177.481,83.439 174.128,86.447 174.773 C 89.609 175.451,273.980 175.341,274.876 174.661 C 276.412 173.493,276.428 172.656,276.312 97.732 L 276.200 24.864 275.230 23.832 L 274.261 22.800 267.339 22.800 L 260.418 22.800 259.709 23.882 M297.475 23.922 L 296.400 25.044 296.400 99.899 L 296.400 174.755 297.289 175.377 C 298.692 176.360,312.289 176.293,313.043 175.300 C 313.480 174.725,313.577 162.893,313.587 108.883 L 313.600 43.165 314.535 42.157 L 315.469 41.149 322.921 41.275 C 329.438 41.384,330.463 41.490,331.087 42.114 C 331.768 42.797,331.809 50.342,332.000 211.400 C 332.191 372.475,332.232 380.003,332.913 380.686 C 333.530 381.303,334.542 381.418,340.383 381.533 L 347.138 381.666 347.869 380.551 C 348.574 379.475,348.600 373.182,348.600 202.150 L 348.600 24.864 347.630 23.832 L 346.661 22.800 322.605 22.800 L 298.550 22.800 297.475 23.922 M136.995 25.700 C 137.123 26.415,137.176 52.470,137.113 83.600 L 137.000 140.200 129.691 140.309 C 125.104 140.377,122.087 140.261,121.591 139.995 C 120.810 139.577,120.800 138.972,120.800 91.261 C 120.800 43.898,120.785 42.934,120.019 42.113 C 118.559 40.545,116.203 40.398,93.080 40.434 C 69.409 40.470,66.621 40.610,65.748 41.803 C 65.010 42.813,64.918 360.143,65.655 361.761 C 66.470 363.550,67.206 363.600,92.634 363.600 C 117.935 363.600,118.182 363.583,119.869 361.763 L 120.800 360.759 120.800 314.068 C 120.800 272.457,120.868 267.281,121.423 266.489 C 122.249 265.309,136.513 265.074,136.957 266.233 C 137.403 267.394,137.229 377.679,136.779 379.300 L 136.362 380.800 93.200 380.800 L 50.038 380.800 49.621 379.300 C 49.171 377.679,49.003 26.974,49.452 25.300 L 49.693 24.400 93.229 24.400 L 136.764 24.400 136.995 25.700 M274.954 25.386 C 275.986 26.961,275.939 169.137,274.906 172.046 L 274.212 174.000 181.123 174.000 L 88.034 174.000 86.417 172.462 L 84.800 170.924 84.800 115.543 L 84.800 60.162 86.329 58.669 L 87.859 57.176 93.225 57.288 L 98.591 57.400 99.195 58.600 C 99.721 59.644,99.826 65.972,100.000 107.229 L 100.200 154.659 101.200 156.124 C 103.171 159.012,96.861 158.801,181.108 158.787 C 252.478 158.774,257.049 158.732,257.828 158.081 C 259.637 156.568,259.600 157.996,259.605 90.440 C 259.608 55.108,259.719 25.795,259.852 25.300 C 260.091 24.409,260.168 24.400,267.201 24.400 L 274.308 24.400 274.954 25.386 M347.377 25.289 C 348.381 26.722,348.327 376.098,347.323 378.900 L 346.642 380.800 341.488 380.800 L 336.334 380.800 334.574 379.100 L 332.813 377.400 332.807 210.074 C 332.802 98.003,332.666 42.498,332.395 41.991 C 331.187 39.734,314.444 39.679,313.332 41.928 C 313.149 42.298,312.910 72.390,312.800 108.800 L 312.600 175.000 305.452 175.109 C 300.520 175.185,298.134 175.077,297.752 174.760 C 297.004 174.139,296.917 27.059,297.664 25.419 L 298.128 24.400 322.442 24.400 L 346.755 24.400 347.377 25.289 M83.500 194.188 C 82.417 195.677,82.481 208.185,83.577 209.500 L 84.328 210.400 187.945 210.400 C 250.962 210.400,291.922 210.546,292.481 210.772 C 292.987 210.977,293.873 211.245,294.452 211.368 C 295.048 211.494,295.651 211.983,295.843 212.496 C 296.542 214.359,296.488 359.894,295.788 360.962 C 294.267 363.283,279.068 363.485,277.010 361.211 C 276.482 360.628,276.397 352.694,276.305 295.556 C 276.206 234.113,276.161 230.506,275.491 229.482 L 274.782 228.400 179.640 228.400 C 103.995 228.400,84.420 228.502,84.119 228.900 C 82.844 230.582,82.800 232.626,82.818 289.446 C 82.835 346.067,82.885 348.366,84.126 350.300 C 84.555 350.968,97.908 351.007,99.361 350.345 C 101.454 349.391,101.385 350.985,101.600 298.416 L 101.800 249.432 103.159 248.516 L 104.518 247.600 181.013 247.600 L 257.508 247.600 258.147 248.575 C 258.725 249.457,258.796 255.810,258.893 314.675 C 258.979 366.837,259.102 379.979,259.514 380.700 L 260.028 381.600 286.165 381.600 C 309.989 381.600,312.351 381.541,312.851 380.939 C 313.609 380.026,313.894 195.527,313.140 194.100 L 312.665 193.200 198.432 193.213 L 84.200 193.225 83.500 194.188 M312.715 285.800 C 312.779 336.180,312.723 378.165,312.591 379.100 L 312.351 380.800 286.394 380.800 L 260.438 380.800 260.021 379.300 C 259.740 378.289,259.604 356.832,259.602 313.480 C 259.600 243.644,259.710 247.133,257.493 246.595 C 257.002 246.476,221.981 246.428,179.669 246.489 L 102.738 246.600 101.369 248.094 L 100.000 249.588 99.981 298.094 C 99.963 343.026,99.911 346.703,99.277 348.000 L 98.593 349.400 91.548 349.509 L 84.504 349.618 84.252 348.359 C 83.924 346.720,83.922 232.089,84.250 230.450 L 84.500 229.200 179.356 229.200 L 274.212 229.200 274.906 231.154 C 275.554 232.977,275.600 237.378,275.600 296.935 C 275.600 365.453,275.503 362.409,277.715 363.180 C 279.021 363.635,292.280 363.764,294.391 363.342 C 297.449 362.730,297.197 369.565,297.196 287.200 C 297.196 212.884,297.170 211.537,295.732 210.343 C 295.185 209.890,277.664 209.767,189.639 209.600 L 84.200 209.400 84.090 202.213 C 84.030 198.261,84.070 194.796,84.178 194.513 C 84.338 194.095,105.821 194.018,198.488 194.099 L 312.600 194.200 312.715 285.800 " stroke="none" fill="#a4e4e4" fill-rule="evenodd"></path></g></svg>