<?xml version="1.0" encoding="UTF-8" standalone="no"?>
<!-- Created with Inkscape (http://www.inkscape.org/) -->

<svg
   xmlns:dc="http://purl.org/dc/elements/1.1/"
   xmlns:cc="http://creativecommons.org/ns#"
   xmlns:rdf="http://www.w3.org/1999/02/22-rdf-syntax-ns#"
   xmlns:svg="http://www.w3.org/2000/svg"
   xmlns="http://www.w3.org/2000/svg"
   xmlns:sodipodi="http://sodipodi.sourceforge.net/DTD/sodipodi-0.dtd"
   xmlns:inkscape="http://www.inkscape.org/namespaces/inkscape"
   version="1.1"
   id="svg14692"
   xml:space="preserve"
   width="800"
   height="800"
   viewBox="0 0 800 800"
   sodipodi:docname="circular-black-lines-art-hape.svg"
   inkscape:version="0.92.4 (5da689c313, 2019-01-14)"><metadata
     id="metadata14698"><rdf:RDF><cc:Work
         rdf:about=""><dc:format>image/svg+xml</dc:format><dc:type
           rdf:resource="http://purl.org/dc/dcmitype/StillImage" /><dc:title></dc:title></cc:Work></rdf:RDF></metadata><defs
     id="defs14696"><clipPath
       clipPathUnits="userSpaceOnUse"
       id="clipPath14708"><path
         d="M 0,600 H 600 V 0 H 0 Z"
         id="path14706"
         inkscape:connector-curvature="0" /></clipPath></defs><sodipodi:namedview
     pagecolor="#ffffff"
     bordercolor="#666666"
     borderopacity="1"
     objecttolerance="10"
     gridtolerance="10"
     guidetolerance="10"
     inkscape:pageopacity="0"
     inkscape:pageshadow="2"
     inkscape:window-width="1920"
     inkscape:window-height="1018"
     id="namedview14694"
     showgrid="false"
     inkscape:zoom="0.7075"
     inkscape:cx="530.50847"
     inkscape:cy="338.98305"
     inkscape:window-x="-8"
     inkscape:window-y="-8"
     inkscape:window-maximized="1"
     inkscape:current-layer="g14700" /><g
     id="g14700"
     inkscape:groupmode="layer"
     inkscape:label="stock-vector-abstract-lines-3-publicdomainvectors.org"
     transform="matrix(1.3333333,0,0,-1.3333333,0,800)"><g
       id="g14702"><g
         id="g14704"
         clip-path="url(#clipPath14708)"><path
           d="m 130.123,115.384 c -25.422,25.503 -45.559,56.335 -58.449,90.081 -12.97,33.713 -18.638,70.194 -16.763,106.045 1.805,35.956 11.315,71.684 27.702,103.828 16.378,32.157 39.493,60.769 67.457,83.485 27.921,22.759 60.709,39.65 95.599,49.03 34.932,9.437 71.506,11.394 107.15,5.94 71.622,-10.671 137.357,-53.219 176.709,-113.68"
           style="fill:none;stroke:#FFFF;stroke-width:2.55100012;stroke-linecap:butt;stroke-linejoin:miter;stroke-miterlimit:4;stroke-dasharray:none;stroke-opacity:1"
           id="path14710"
           inkscape:connector-curvature="0" /><path
           d="m 204.794,76.211 c -64.156,31.074 -113.255,91.06 -130.723,160.327 -8.833,34.554 -10.104,70.728 -3.788,105.766 6.321,35.042 20.412,68.673 40.901,97.732 40.629,58.43 107.738,97.698 178.847,103.912 35.321,3.299 71.45,-0.939 105.07,-12.808 33.623,-11.765 64.538,-30.977 90.035,-55.727"
           style="fill:none;stroke:#FFFF;stroke-width:2.55100012;stroke-linecap:butt;stroke-linejoin:miter;stroke-miterlimit:4;stroke-dasharray:none;stroke-opacity:1"
           id="path14712"
           inkscape:connector-curvature="0" /><path
           d="m 134.685,145.071 c -22.265,25.927 -38.817,56.79 -47.981,89.777 -9.186,33.009 -11.043,67.845 -5.488,101.595 10.739,67.798 53.145,129.376 112.201,164.032 58.857,35.336 133.189,42.53 197.787,19.569 64.823,-22.442 118.208,-74.629 142.152,-138.898"
           style="fill:none;stroke:#FFFF;stroke-width:2.55100012;stroke-linecap:butt;stroke-linejoin:miter;stroke-miterlimit:4;stroke-dasharray:none;stroke-opacity:1"
           id="path14714"
           inkscape:connector-curvature="0" /><path
           d="m 182.68,116.803 c -30.325,21.863 -55.083,51.391 -71.152,85.181 -16.168,33.746 -23.471,71.647 -21.309,108.927 2.039,37.331 13.756,74.127 33.679,105.774 19.837,31.702 47.752,58.26 80.41,76.494 65.251,37.152 149.252,37.737 215.053,1.596 32.925,-17.757 61.2,-43.926 81.525,-75.313 20.409,-31.337 32.633,-67.969 35.237,-105.265"
           style="fill:none;stroke:#FFFF;stroke-width:2.55100012;stroke-linecap:butt;stroke-linejoin:miter;stroke-miterlimit:4;stroke-dasharray:none;stroke-opacity:1"
           id="path14716"
           inkscape:connector-curvature="0" /><path
           d="m 515.571,360.561 c -19.011,62.855 -69.112,115.178 -131.078,136.912 -61.697,22.371 -133.661,13.834 -188.129,-22.911 -27.297,-18.1 -50.315,-42.601 -66.65,-70.995 -16.359,-28.378 -25.956,-60.612 -27.755,-93.319 -1.889,-32.697 3.857,-65.828 16.871,-95.894 12.928,-30.1 33.039,-57.053 58.091,-78.146"
           style="fill:none;stroke:#FFFF;stroke-width:2.55100012;stroke-linecap:butt;stroke-linejoin:miter;stroke-miterlimit:4;stroke-dasharray:none;stroke-opacity:1"
           id="path14718"
           inkscape:connector-curvature="0" /><path
           d="m 509.291,337.531 c -6.704,33.85 -22.532,65.793 -45.226,91.811 -22.661,26.046 -52.133,46.131 -84.717,57.476 -32.526,11.44 -68.137,14.143 -102.084,7.949 -33.947,-6.151 -66.202,-21.329 -92.58,-43.618 -26.458,-22.185 -47.009,-51.335 -58.957,-83.698 -12.018,-32.327 -15.288,-67.873 -9.707,-101.93 5.517,-34.064 20.173,-66.555 41.98,-93.327 21.719,-26.838 50.515,-47.895 82.662,-60.408"
           style="fill:none;stroke:#FFFF;stroke-width:2.55100012;stroke-linecap:butt;stroke-linejoin:miter;stroke-miterlimit:4;stroke-dasharray:none;stroke-opacity:1"
           id="path14720"
           inkscape:connector-curvature="0" /><path
           d="m 228.997,156.648 c -23.549,14.016 -43.548,34.113 -57.485,57.705 -13.999,23.577 -21.867,50.535 -22.758,78.022 -0.966,27.577 4.979,55.017 17.301,79.483 12.246,24.484 30.836,45.88 53.375,61.51 22.515,15.69 48.857,25.544 76.122,28.41 27.388,2.922 55.349,-0.992 80.586,-11.479 50.904,-20.577 89.8,-68.607 99.117,-122.6"
           style="fill:none;stroke:#FFFF;stroke-width:2.55100012;stroke-linecap:butt;stroke-linejoin:miter;stroke-miterlimit:4;stroke-dasharray:none;stroke-opacity:1"
           id="path14722"
           inkscape:connector-curvature="0" /><path
           d="m 501.397,300.138 c -0.263,30.48 -8.041,60.718 -22.572,87.446 -14.458,26.752 -35.566,49.923 -60.844,66.855 -25.25,16.982 -54.616,27.659 -84.881,30.772 -30.314,3.159 -61.329,-0.995 -89.531,-12.301 -56.754,-22.217 -100.965,-73.892 -113.872,-133.427 -6.677,-29.63 -6.013,-61.072 1.877,-90.373 7.854,-29.35 23.06,-56.702 43.797,-78.99"
           style="fill:none;stroke:#FFFF;stroke-width:2.55100012;stroke-linecap:butt;stroke-linejoin:miter;stroke-miterlimit:4;stroke-dasharray:none;stroke-opacity:1"
           id="path14724"
           inkscape:connector-curvature="0" /><path
           d="m 166.958,199.543 c -15.392,22.765 -25.272,49.079 -28.687,76.313 -3.397,27.296 -0.501,55.408 8.709,81.191 18.013,51.903 62.11,94.096 114.735,109.785 26.149,8.018 54.463,9.744 81.508,5.116 27.035,-4.601 52.915,-15.64 74.967,-32.048 44.516,-32.601 71.927,-86.639 71.477,-141.804"
           style="fill:none;stroke:#FFFF;stroke-width:2.55100012;stroke-linecap:butt;stroke-linejoin:miter;stroke-miterlimit:4;stroke-dasharray:none;stroke-opacity:1"
           id="path14726"
           inkscape:connector-curvature="0" /><path
           d="m 466.122,299.763 c -0.246,30.137 -9.526,59.657 -26.509,84.425 -16.884,24.791 -41.287,44.5 -68.989,55.662 -27.537,11.257 -58.931,14.016 -88.256,8.004 -29.27,-5.935 -56.666,-20.844 -77.768,-42.256 -21.171,-21.343 -35.775,-48.88 -41.391,-78.217 -5.723,-29.413 -2.638,-60.742 8.936,-88.163 11.457,-27.588 31.432,-51.79 56.412,-68.388 24.952,-16.701 54.553,-25.644 84.717,-25.607"
           style="fill:none;stroke:#FFFF;stroke-width:2.55100012;stroke-linecap:butt;stroke-linejoin:miter;stroke-miterlimit:4;stroke-dasharray:none;stroke-opacity:1"
           id="path14728"
           inkscape:connector-curvature="0" /><path
           d="M 266.724,31.639 C 225.517,38.77 185.99,55.71 152.498,80.599 118.943,105.415 91.263,138.019 72.261,175.265 33.759,249.909 33,341.833 70.339,417.066 c 36.46,75.371 109.519,131.478 192.143,146.708 41.083,7.811 83.591,6.051 123.981,-5.252 40.314,-11.288 77.808,-32.145 108.653,-60.21"
           style="fill:none;stroke:#FFFF;stroke-width:2.55100012;stroke-linecap:butt;stroke-linejoin:miter;stroke-miterlimit:4;stroke-dasharray:none;stroke-opacity:1"
           id="path14730"
           inkscape:connector-curvature="0" /><path
           d="m 394.463,375.218 c 22.312,-22.089 34.686,-54.307 32.836,-85.61 -1.439,-31.511 -17.068,-62.097 -41.538,-81.78 -24.299,-20.029 -57.557,-28.974 -88.5,-24.01 -31.304,4.703 -59.999,23.246 -77.15,49.624"
           style="fill:none;stroke:#FFFF;stroke-width:2.55100012;stroke-linecap:butt;stroke-linejoin:miter;stroke-miterlimit:4;stroke-dasharray:none;stroke-opacity:1"
           id="path14732"
           inkscape:connector-curvature="0" /><path
           d="m 359.905,388.29 c 26.851,-13.025 47.338,-38.06 54.696,-67.091 7.484,-28.814 1.823,-60.803 -15.552,-85.145 -16.956,-24.434 -45.069,-40.861 -74.835,-43.479 -29.506,-2.974 -60.442,7.798 -81.62,28.686"
           style="fill:none;stroke:#FFFF;stroke-width:2.55100012;stroke-linecap:butt;stroke-linejoin:miter;stroke-miterlimit:4;stroke-dasharray:none;stroke-opacity:1"
           id="path14734"
           inkscape:connector-curvature="0" /><path
           d="m 385.663,356.429 c 17.92,-20.569 25.916,-49.438 21.316,-76.247 -4.297,-27.049 -21.177,-51.567 -44.706,-65.373 -23.501,-14.092 -53.054,-16.955 -78.823,-7.8 -25.862,8.955 -47.081,29.72 -56.647,55.345"
           style="fill:none;stroke:#FFFF;stroke-width:2.55100012;stroke-linecap:butt;stroke-linejoin:miter;stroke-miterlimit:4;stroke-dasharray:none;stroke-opacity:1"
           id="path14736"
           inkscape:connector-curvature="0" /><path
           d="m 363.669,363.695 c 23.053,-16.276 36.703,-44.902 34.812,-73.064 -1.338,-28.263 -18.23,-55.019 -42.952,-68.618 -24.584,-14.007 -56.173,-14.206 -80.972,-0.61 -24.928,13.243 -42.177,39.76 -43.94,67.992"
           style="fill:none;stroke:#FFFF;stroke-width:2.55100012;stroke-linecap:butt;stroke-linejoin:miter;stroke-miterlimit:4;stroke-dasharray:none;stroke-opacity:1"
           id="path14738"
           inkscape:connector-curvature="0" /><path
           d="m 243.288,273.461 c 6.712,-22.121 24.343,-40.523 46.145,-48.192 21.716,-7.859 47.054,-4.876 66.223,8.064 19.323,12.671 32.092,34.737 33.233,57.841 1.473,23.067 -8.573,46.505 -26.389,61.262"
           style="fill:none;stroke:#FFFF;stroke-width:2.55100012;stroke-linecap:butt;stroke-linejoin:miter;stroke-miterlimit:4;stroke-dasharray:none;stroke-opacity:1"
           id="path14740"
           inkscape:connector-curvature="0" /><path
           d="m 250.864,282.642 c 4.229,-22.039 20.918,-41.232 42.189,-48.456 21.157,-7.557 46.134,-3.103 63.195,11.574 17.383,14.361 26.167,38.036 22.292,60.272 -3.437,22.189 -19.457,41.918 -40.467,49.896"
           style="fill:none;stroke:#FFFF;stroke-width:2.55100012;stroke-linecap:butt;stroke-linejoin:miter;stroke-miterlimit:4;stroke-dasharray:none;stroke-opacity:1"
           id="path14742"
           inkscape:connector-curvature="0" /><path
           d="m 332.953,326.465 c 10.473,-6.167 17.304,-17.711 17.594,-29.746 0.536,-12.187 -5.471,-23.976 -15.498,-30.924 -9.685,-6.978 -23.318,-8.333 -34.315,-3.71 -11.139,4.457 -19.728,15.145 -21.713,26.849"
           style="fill:none;stroke:#FFFF;stroke-width:2.55100012;stroke-linecap:butt;stroke-linejoin:miter;stroke-miterlimit:4;stroke-dasharray:none;stroke-opacity:1"
           id="path14744"
           inkscape:connector-curvature="0" /><path
           d="m 259.22,294.85 c -0.002,-17.973 9.52,-35.423 24.518,-45.356 14.739,-10.12 34.696,-12.132 51.245,-5.411 16.655,6.508 29.701,21.748 33.461,39.196 4.025,17.534 -1.053,36.709 -13.413,49.777"
           style="fill:none;stroke:#FFFF;stroke-width:2.55100012;stroke-linecap:butt;stroke-linejoin:miter;stroke-miterlimit:4;stroke-dasharray:none;stroke-opacity:1"
           id="path14746"
           inkscape:connector-curvature="0" /><path
           d="m 352.418,320.966 c 8.021,-11.669 9.976,-27.433 5.159,-40.784 -4.643,-13.389 -16.147,-24.401 -29.711,-28.439 -13.601,-4.18 -29.195,-1.622 -40.527,6.967 -11.576,8.519 -18.599,22.413 -18.529,36.741"
           style="fill:none;stroke:#FFFF;stroke-width:2.55100012;stroke-linecap:butt;stroke-linejoin:miter;stroke-miterlimit:4;stroke-dasharray:none;stroke-opacity:1"
           id="path14748"
           inkscape:connector-curvature="0" /><path
           d="m 288.042,295.156 c -0.126,-10.435 6.854,-20.424 16.541,-24.258 4.627,-1.919 10.242,-2.422 15.314,-1.386 5.004,1.014 9.727,3.566 13.426,7.324 3.706,3.75 6.198,8.486 7.16,13.503 1.005,5.099 0.456,10.685 -1.524,15.297 -3.949,9.688 -14.01,16.468 -24.455,16.293"
           style="fill:none;stroke:#FFFF;stroke-width:2.55100012;stroke-linecap:butt;stroke-linejoin:miter;stroke-miterlimit:4;stroke-dasharray:none;stroke-opacity:1"
           id="path14750"
           inkscape:connector-curvature="0" /><path
           d="m 335.568,416.171 c 37.629,-6.299 71.06,-31.194 88.114,-65.058 17.495,-33.913 17.793,-75.392 0.885,-109.58 -16.519,-34.17 -49.573,-59.5 -87.073,-66.456 -36.989,-7.372 -77.577,3.963 -105.392,29.655"
           style="fill:none;stroke:#FFFF;stroke-width:2.55100012;stroke-linecap:butt;stroke-linejoin:miter;stroke-miterlimit:4;stroke-dasharray:none;stroke-opacity:1"
           id="path14752"
           inkscape:connector-curvature="0" /></g></g></g></svg>