<svg id="svg" version="1.1" xmlns="http://www.w3.org/2000/svg" xmlns:xlink="http://www.w3.org/1999/xlink" width="50" height="50" viewBox="0, 0, 400,417.39130434782606"><g id="svgg"><path id="path0" d="M53.614 28.774 C 53.032 29.861,53.039 384.005,53.621 386.100 L 54.038 387.600 97.569 387.600 L 141.100 387.600 141.350 386.350 C 141.671 384.745,141.669 273.298,141.348 272.100 C 141.109 271.210,141.027 271.200,134.117 271.200 C 127.359 271.200,127.103 271.230,126.377 272.100 C 125.653 272.969,125.626 274.624,125.613 320.015 L 125.600 367.030 124.474 368.379 C 122.488 370.758,122.160 370.787,97.800 370.792 C 74.169 370.796,71.651 370.633,70.016 368.998 L 69.000 367.982 68.899 207.362 L 68.797 46.741 69.979 45.559 L 71.161 44.378 97.154 44.489 L 123.148 44.600 124.374 45.775 L 125.600 46.950 125.600 95.661 C 125.600 143.778,125.610 144.377,126.391 144.795 C 126.886 145.060,129.842 145.178,134.291 145.109 L 141.400 145.000 141.510 87.400 C 141.570 55.720,141.521 29.395,141.402 28.900 L 141.185 28.000 97.606 28.000 C 54.931 28.000,54.020 28.016,53.614 28.774 M265.843 28.633 C 265.709 28.981,265.598 58.276,265.596 93.733 C 265.591 162.523,265.638 160.769,263.736 162.871 C 262.887 163.809,109.566 164.034,107.895 163.100 C 104.103 160.981,104.400 165.353,104.400 111.723 C 104.400 64.999,104.389 64.347,103.592 62.784 L 102.784 61.200 97.475 61.200 L 92.167 61.200 90.483 62.915 L 88.800 64.630 88.800 120.078 L 88.800 175.527 90.585 177.363 L 92.370 179.200 186.302 179.200 L 280.234 179.200 280.717 177.394 C 281.461 174.613,281.389 29.682,280.643 28.700 C 279.877 27.691,266.228 27.629,265.843 28.633 M304.048 28.542 C 303.717 28.941,303.625 49.075,303.699 104.442 L 303.800 179.800 311.400 179.800 L 319.000 179.800 319.101 113.025 L 319.202 46.249 320.091 45.303 C 321.467 43.838,337.224 44.046,338.436 45.544 C 339.185 46.470,339.200 49.742,339.200 215.361 L 339.200 384.233 340.915 385.917 L 342.630 387.600 347.876 387.600 L 353.122 387.600 353.561 386.340 C 354.223 384.441,354.183 29.143,353.520 28.480 C 352.772 27.732,304.670 27.792,304.048 28.542 M88.440 199.752 C 88.123 200.134,88.015 202.520,88.091 207.452 L 88.200 214.600 194.600 214.807 C 253.120 214.921,301.037 215.056,301.082 215.107 C 301.127 215.158,301.604 215.641,302.143 216.179 C 303.641 217.678,303.654 218.405,303.522 296.291 L 303.400 367.982 302.384 368.998 C 299.994 371.388,284.819 371.540,282.307 369.199 L 281.400 368.354 281.200 302.477 C 281.090 266.245,280.846 236.285,280.657 235.900 C 280.124 234.810,88.935 234.810,88.487 235.900 C 88.099 236.847,88.119 353.909,88.508 355.300 L 88.815 356.400 95.822 356.400 L 102.828 356.400 103.614 354.567 C 104.381 352.779,104.400 351.535,104.413 303.867 C 104.423 266.081,104.536 254.857,104.913 254.370 C 106.731 252.019,100.004 252.212,184.582 252.085 C 226.832 252.021,261.986 252.075,262.701 252.203 C 265.832 252.765,265.600 247.324,265.600 320.334 C 265.600 355.955,265.713 385.663,265.850 386.350 L 266.100 387.600 292.231 387.600 L 318.362 387.600 318.779 386.100 C 319.419 383.796,319.361 200.321,318.720 199.680 C 317.956 198.916,89.074 198.988,88.440 199.752 " stroke="none" fill="#111929" fill-rule="evenodd"></path><path id="path1" d="M0.000 208.600 L 0.000 417.200 200.000 417.200 L 400.000 417.200 400.000 208.600 L 400.000 0.000 200.000 0.000 L 0.000 0.000 0.000 208.600 M142.295 24.212 C 143.992 25.400,143.995 25.517,143.998 86.656 C 144.000 142.124,143.960 145.561,143.300 146.376 C 142.285 147.630,123.442 147.507,122.041 146.238 L 121.200 145.476 121.200 96.181 C 121.200 51.599,121.140 46.862,120.567 46.643 C 119.729 46.321,76.060 46.328,74.450 46.650 L 73.200 46.900 73.200 207.003 L 73.200 367.107 74.100 367.348 C 75.280 367.664,119.744 367.673,120.567 367.357 C 121.139 367.138,121.200 362.515,121.200 319.118 C 121.200 265.915,121.037 269.138,123.791 267.831 C 125.535 267.004,141.450 266.892,142.492 267.700 C 143.961 268.840,143.995 270.240,143.998 329.513 C 144.000 394.735,144.215 390.149,141.133 390.588 C 140.180 390.724,119.899 390.782,96.065 390.718 L 52.729 390.600 51.965 389.656 C 51.196 388.706,50.691 29.847,51.453 26.035 C 51.959 23.503,49.465 23.634,97.611 23.616 C 136.299 23.602,141.524 23.672,142.295 24.212 M281.719 24.140 C 282.669 24.538,283.303 25.275,284.111 26.926 L 285.210 29.171 285.105 103.909 L 285.000 178.647 283.849 180.023 C 283.215 180.781,282.405 181.522,282.049 181.672 C 281.241 182.010,89.345 182.081,88.084 181.744 C 85.900 181.159,86.000 184.121,86.000 120.246 C 86.000 59.414,85.993 59.687,87.681 58.724 C 90.503 57.115,107.059 58.218,108.275 60.097 C 108.454 60.374,108.690 82.740,108.800 109.800 L 109.000 159.000 186.000 159.000 L 263.000 159.000 263.200 92.600 C 263.410 22.896,263.350 25.052,265.105 24.029 C 266.201 23.390,280.147 23.484,281.719 24.140 M355.100 24.396 C 355.815 24.832,356.400 25.363,356.400 25.576 C 356.400 25.790,356.851 26.629,357.403 27.442 L 358.405 28.919 358.303 208.160 L 358.200 387.400 356.918 388.723 C 355.168 390.529,353.894 390.804,347.403 390.776 C 340.929 390.749,338.221 390.393,337.274 389.445 C 336.645 388.816,336.587 377.389,336.400 217.686 L 336.200 46.600 328.800 46.600 L 321.400 46.600 321.200 114.200 L 321.000 181.800 319.811 183.100 L 318.622 184.400 311.314 184.400 L 304.005 184.400 301.603 182.034 L 299.200 179.669 299.200 104.290 L 299.200 28.912 300.200 27.438 C 300.750 26.628,301.200 25.790,301.200 25.576 C 301.200 23.392,351.642 22.287,355.100 24.396 M320.571 197.829 C 321.653 198.910,321.518 388.318,320.435 389.656 L 319.671 390.600 293.735 390.719 C 279.471 390.785,267.020 390.727,266.067 390.590 C 262.973 390.146,263.200 395.628,263.200 321.412 L 263.200 255.198 186.100 255.299 L 109.000 255.400 108.800 306.000 C 108.690 333.830,108.451 356.901,108.269 357.269 C 107.006 359.823,89.155 360.755,86.790 358.390 C 85.537 357.137,85.547 234.053,86.800 232.800 C 87.670 231.930,279.830 231.493,282.074 232.356 C 282.583 232.552,283.450 233.317,284.000 234.056 L 285.000 235.400 285.106 301.255 L 285.212 367.110 286.106 367.349 C 287.271 367.662,297.133 367.661,298.300 367.348 L 299.200 367.107 299.200 293.885 C 299.200 226.312,299.149 220.607,298.538 219.931 C 297.900 219.226,294.103 219.200,193.285 219.200 L 88.694 219.200 87.347 217.772 L 86.000 216.343 86.000 207.400 C 86.000 199.803,86.095 198.363,86.629 197.829 C 87.592 196.865,319.608 196.865,320.571 197.829 " stroke="none" fill="#fcfcfc" fill-rule="evenodd"></path><path id="path2" d="M53.230 26.252 C 51.558 28.379,51.590 24.573,51.696 208.990 L 51.800 387.669 52.922 388.635 L 54.045 389.600 97.522 389.587 C 140.957 389.573,141.001 389.573,142.000 388.742 L 143.000 387.910 143.000 329.439 L 143.000 270.968 142.000 269.706 L 141.000 268.444 134.092 268.422 C 127.398 268.401,127.135 268.431,125.603 269.398 C 122.583 271.305,122.800 267.392,122.800 319.917 L 122.800 367.074 121.500 367.760 C 119.736 368.691,72.590 368.588,71.461 367.651 C 70.582 366.921,70.422 47.092,71.300 46.524 C 72.138 45.982,120.388 45.898,121.688 46.437 L 122.800 46.897 122.800 95.760 C 122.800 143.587,122.816 144.636,123.574 145.285 C 125.791 147.183,140.438 147.598,142.222 145.814 L 143.208 144.828 143.104 86.314 L 143.000 27.800 142.073 26.500 L 141.146 25.200 97.602 25.200 L 54.058 25.200 53.230 26.252 M265.531 25.891 C 265.196 26.281,264.759 26.870,264.561 27.200 C 264.352 27.546,264.115 55.619,264.000 93.639 C 263.833 148.637,263.710 159.586,263.251 160.139 C 262.744 160.750,256.858 160.800,186.026 160.800 L 109.350 160.800 108.275 159.678 L 107.200 158.556 107.168 111.378 C 107.144 76.752,107.011 63.721,106.668 62.400 C 105.935 59.581,104.811 59.201,97.200 59.203 C 89.737 59.205,88.301 59.518,87.546 61.306 C 86.714 63.278,86.735 177.384,87.568 178.939 C 88.720 181.093,83.965 180.988,185.611 181.101 L 280.222 181.207 281.611 180.047 L 283.000 178.888 283.000 103.681 L 283.000 28.474 281.756 26.937 L 280.513 25.400 273.326 25.291 C 266.863 25.193,266.079 25.254,265.531 25.891 M303.931 25.615 C 303.563 25.829,302.888 26.610,302.431 27.350 L 301.600 28.694 301.600 104.272 L 301.600 179.850 302.722 180.925 L 303.844 182.000 311.252 182.000 L 318.661 182.000 319.630 180.968 L 320.600 179.936 320.800 113.068 L 321.000 46.200 328.548 46.091 C 333.777 46.015,336.266 46.123,336.648 46.440 C 337.116 46.828,337.203 72.683,337.218 215.549 C 337.237 396.139,337.138 387.397,339.174 388.749 C 340.739 389.788,352.638 389.883,354.242 388.868 C 356.097 387.694,356.000 397.768,356.000 207.097 L 356.000 28.694 355.164 27.342 C 354.705 26.598,353.996 25.812,353.591 25.595 C 352.595 25.062,304.845 25.081,303.931 25.615 M141.992 27.984 C 143.259 30.468,143.267 143.933,142.000 145.200 C 140.859 146.341,126.935 146.372,125.000 145.238 L 123.800 144.535 123.600 95.573 L 123.400 46.611 122.200 46.005 C 120.548 45.172,72.749 45.086,71.300 45.914 L 70.400 46.428 70.400 206.952 L 70.400 367.476 71.242 368.238 C 72.616 369.482,119.573 369.638,121.987 368.407 L 123.600 367.584 123.600 320.192 L 123.600 272.800 125.200 271.200 L 126.800 269.600 133.926 269.600 L 141.052 269.600 141.926 271.238 L 142.800 272.876 142.800 328.691 C 142.800 384.543,142.754 386.620,141.481 388.300 C 141.182 388.695,131.886 388.800,97.365 388.800 L 53.628 388.800 53.114 387.900 C 52.182 386.268,52.375 28.907,53.309 27.482 L 54.018 26.400 97.601 26.400 L 141.184 26.400 141.992 27.984 M281.273 27.700 L 282.200 29.000 282.200 103.200 C 282.200 168.654,282.129 177.541,281.595 178.600 L 280.989 179.800 185.115 179.800 C 106.986 179.800,89.144 179.704,88.720 179.280 C 88.179 178.739,87.673 66.249,88.195 62.576 C 88.518 60.305,89.577 60.000,97.142 60.000 C 104.056 60.000,104.906 60.276,105.590 62.741 C 105.853 63.688,105.996 80.805,105.998 111.531 L 106.000 158.863 107.584 160.431 L 109.169 162.000 185.975 162.000 L 262.782 162.000 263.491 160.918 C 264.160 159.896,264.211 156.168,264.400 94.218 C 264.593 31.024,264.628 28.559,265.346 27.500 L 266.092 26.400 273.219 26.400 L 280.346 26.400 281.273 27.700 M354.566 28.250 L 355.600 30.101 355.582 206.950 C 355.569 344.599,355.457 384.209,355.078 385.644 C 354.246 388.794,354.233 388.800,347.928 388.800 C 340.515 388.800,338.973 388.412,338.651 386.464 C 338.518 385.659,338.407 308.920,338.404 215.933 L 338.400 46.865 337.053 46.033 C 334.954 44.735,322.315 44.764,320.926 46.070 L 320.000 46.939 320.000 113.216 L 320.000 179.492 319.171 180.546 L 318.342 181.600 311.391 181.600 L 304.441 181.600 303.222 180.300 L 302.004 179.000 302.002 104.550 L 302.000 30.101 303.034 28.250 L 304.068 26.400 328.800 26.400 L 353.532 26.400 354.566 28.250 M87.544 198.794 L 86.350 199.988 86.475 207.363 C 86.596 214.529,86.627 214.767,87.567 215.766 L 88.534 216.794 193.858 216.897 L 299.182 217.000 300.291 218.109 L 301.400 219.218 301.504 293.157 C 301.601 361.664,301.560 367.136,300.944 367.648 C 300.068 368.375,287.289 368.670,284.870 368.019 L 283.216 367.573 283.108 301.354 L 283.000 235.134 281.694 233.967 L 280.387 232.800 184.655 232.800 C 75.271 232.800,87.350 232.342,86.756 236.510 C 86.361 239.282,86.370 351.980,86.766 354.765 C 87.279 358.381,87.566 358.487,96.381 358.319 C 104.577 358.163,105.618 357.908,106.480 355.845 C 106.895 354.851,107.022 344.592,107.108 304.982 L 107.215 255.364 108.369 254.682 C 110.219 253.589,262.342 253.631,263.332 254.725 C 263.934 255.390,263.997 260.947,264.094 321.748 L 264.200 388.046 265.200 388.814 C 266.162 389.553,267.181 389.583,292.278 389.591 L 318.355 389.600 319.478 388.635 L 320.600 387.669 320.707 293.810 L 320.813 199.952 319.637 198.776 L 318.462 197.600 203.600 197.600 L 88.738 197.600 87.544 198.794 M319.343 199.137 C 320.237 200.125,320.181 386.333,319.286 387.900 L 318.772 388.800 292.448 388.800 C 266.195 388.800,266.122 388.798,265.362 387.958 C 264.620 387.138,264.597 385.378,264.493 321.133 C 264.396 261.478,264.325 255.057,263.747 254.175 L 263.108 253.200 186.047 253.200 L 108.986 253.200 107.493 254.214 L 106.000 255.229 106.000 304.268 C 106.000 339.145,105.871 353.737,105.554 354.794 C 104.787 357.355,103.918 357.600,95.618 357.600 L 88.359 357.600 87.780 356.213 C 86.880 354.060,86.910 236.921,87.811 235.179 L 88.421 233.998 184.705 234.099 L 280.989 234.200 281.595 235.400 C 282.125 236.452,282.225 244.682,282.400 302.086 C 282.590 364.267,282.636 367.608,283.314 368.286 C 284.438 369.410,299.913 369.365,301.162 368.234 L 302.008 367.469 301.904 292.554 C 301.820 231.728,301.702 217.542,301.280 217.120 C 300.857 216.696,281.117 216.581,194.903 216.497 L 89.045 216.394 88.123 215.527 C 86.892 214.371,86.670 200.448,87.862 199.131 C 88.902 197.982,318.303 197.988,319.343 199.137 " stroke="none" fill="#848c94" fill-rule="evenodd"></path><path id="path3" d="M52.753 24.201 C 52.098 24.557,51.611 25.244,51.453 26.035 C 50.691 29.847,51.196 388.706,51.965 389.656 L 52.729 390.600 96.065 390.718 C 119.899 390.782,140.180 390.724,141.133 390.588 C 144.215 390.149,144.000 394.735,143.998 329.513 C 143.995 270.240,143.961 268.840,142.492 267.700 C 141.450 266.892,125.535 267.004,123.791 267.831 C 121.037 269.138,121.200 265.915,121.200 319.118 C 121.200 362.515,121.139 367.138,120.567 367.357 C 119.744 367.673,75.280 367.664,74.100 367.348 L 73.200 367.107 73.200 207.003 L 73.200 46.900 74.450 46.650 C 76.060 46.328,119.729 46.321,120.567 46.643 C 121.140 46.862,121.200 51.599,121.200 96.181 L 121.200 145.476 122.041 146.238 C 123.442 147.507,142.285 147.630,143.300 146.376 C 143.960 145.561,144.000 142.124,143.998 86.656 C 143.995 25.517,143.992 25.400,142.295 24.212 C 141.023 23.321,54.392 23.310,52.753 24.201 M265.105 24.029 C 263.350 25.052,263.410 22.896,263.200 92.600 L 263.000 159.000 186.000 159.000 L 109.000 159.000 108.800 109.800 C 108.690 82.740,108.454 60.374,108.275 60.097 C 107.059 58.218,90.503 57.115,87.681 58.724 C 85.993 59.687,86.000 59.414,86.000 120.246 C 86.000 184.121,85.900 181.159,88.084 181.744 C 89.345 182.081,281.241 182.010,282.049 181.672 C 282.405 181.522,283.215 180.781,283.849 180.023 L 285.000 178.647 285.105 103.909 L 285.210 29.171 284.111 26.926 C 282.559 23.755,282.035 23.597,273.113 23.612 C 268.926 23.619,265.503 23.797,265.105 24.029 M302.500 24.396 C 301.785 24.832,301.200 25.363,301.200 25.576 C 301.200 25.790,300.750 26.628,300.200 27.438 L 299.200 28.912 299.200 104.290 L 299.200 179.669 301.603 182.034 L 304.005 184.400 311.314 184.400 L 318.622 184.400 319.811 183.100 L 321.000 181.800 321.200 114.200 L 321.400 46.600 328.800 46.600 L 336.200 46.600 336.400 217.686 C 336.587 377.389,336.645 388.816,337.274 389.445 C 338.221 390.393,340.929 390.749,347.403 390.776 C 353.894 390.804,355.168 390.529,356.918 388.723 L 358.200 387.400 358.303 208.160 L 358.405 28.919 357.403 27.442 C 356.851 26.629,356.400 25.790,356.400 25.576 C 356.400 23.392,305.958 22.287,302.500 24.396 M142.073 26.500 L 143.000 27.800 143.104 86.314 L 143.208 144.828 142.222 145.814 C 140.438 147.598,125.791 147.183,123.574 145.285 C 122.816 144.636,122.800 143.587,122.800 95.760 L 122.800 46.897 121.688 46.437 C 120.388 45.898,72.138 45.982,71.300 46.524 C 70.422 47.092,70.582 366.921,71.461 367.651 C 72.590 368.588,119.736 368.691,121.500 367.760 L 122.800 367.074 122.800 319.917 C 122.800 267.392,122.583 271.305,125.603 269.398 C 127.135 268.431,127.398 268.401,134.092 268.422 L 141.000 268.444 142.000 269.706 L 143.000 270.968 143.000 329.439 L 143.000 387.910 142.000 388.742 C 141.001 389.573,140.957 389.573,97.522 389.587 L 54.045 389.600 52.922 388.635 L 51.800 387.669 51.696 208.990 C 51.590 24.573,51.558 28.379,53.230 26.252 L 54.058 25.200 97.602 25.200 L 141.146 25.200 142.073 26.500 M281.756 26.937 L 283.000 28.474 283.000 103.681 L 283.000 178.888 281.611 180.047 L 280.222 181.207 185.611 181.101 C 83.965 180.988,88.720 181.093,87.568 178.939 C 86.735 177.384,86.714 63.278,87.546 61.306 C 88.301 59.518,89.737 59.205,97.200 59.203 C 104.811 59.201,105.935 59.581,106.668 62.400 C 107.011 63.721,107.144 76.752,107.168 111.378 L 107.200 158.556 108.275 159.678 L 109.350 160.800 186.026 160.800 C 256.858 160.800,262.744 160.750,263.251 160.139 C 263.710 159.586,263.833 148.637,264.000 93.639 C 264.115 55.619,264.352 27.546,264.561 27.200 C 265.795 25.148,265.670 25.175,273.326 25.291 L 280.513 25.400 281.756 26.937 M353.591 25.595 C 353.996 25.812,354.705 26.598,355.164 27.342 L 356.000 28.694 356.000 207.097 C 356.000 397.768,356.097 387.694,354.242 388.868 C 352.638 389.883,340.739 389.788,339.174 388.749 C 337.138 387.397,337.237 396.139,337.218 215.549 C 337.203 72.683,337.116 46.828,336.648 46.440 C 336.266 46.123,333.777 46.015,328.548 46.091 L 321.000 46.200 320.800 113.068 L 320.600 179.936 319.630 180.968 L 318.661 182.000 311.252 182.000 L 303.844 182.000 302.722 180.925 L 301.600 179.850 301.600 104.272 L 301.600 28.694 302.431 27.350 C 302.888 26.610,303.563 25.829,303.931 25.615 C 304.845 25.081,352.595 25.062,353.591 25.595 M86.629 197.829 C 86.095 198.363,86.000 199.803,86.000 207.400 L 86.000 216.343 87.347 217.772 L 88.694 219.200 193.285 219.200 C 294.103 219.200,297.900 219.226,298.538 219.931 C 299.149 220.607,299.200 226.312,299.200 293.885 L 299.200 367.107 298.300 367.348 C 297.133 367.661,287.271 367.662,286.106 367.349 L 285.212 367.110 285.106 301.255 L 285.000 235.400 284.000 234.056 C 283.450 233.317,282.583 232.552,282.074 232.356 C 279.830 231.493,87.670 231.930,86.800 232.800 C 85.547 234.053,85.537 357.137,86.790 358.390 C 89.155 360.755,107.006 359.823,108.269 357.269 C 108.451 356.901,108.690 333.830,108.800 306.000 L 109.000 255.400 186.100 255.299 L 263.200 255.198 263.200 321.412 C 263.200 395.628,262.973 390.146,266.067 390.590 C 267.020 390.727,279.471 390.785,293.735 390.719 L 319.671 390.600 320.435 389.656 C 321.518 388.318,321.653 198.910,320.571 197.829 C 319.608 196.865,87.592 196.865,86.629 197.829 M319.637 198.776 L 320.813 199.952 320.707 293.810 L 320.600 387.669 319.478 388.635 L 318.355 389.600 292.278 389.591 C 267.181 389.583,266.162 389.553,265.200 388.814 L 264.200 388.046 264.094 321.748 C 263.997 260.947,263.934 255.390,263.332 254.725 C 262.342 253.631,110.219 253.589,108.369 254.682 L 107.215 255.364 107.108 304.982 C 107.022 344.592,106.895 354.851,106.480 355.845 C 105.618 357.908,104.577 358.163,96.381 358.319 C 87.566 358.487,87.279 358.381,86.766 354.765 C 86.370 351.980,86.361 239.282,86.756 236.510 C 87.350 232.342,75.271 232.800,184.655 232.800 L 280.387 232.800 281.694 233.967 L 283.000 235.134 283.108 301.354 L 283.216 367.573 284.870 368.019 C 287.289 368.670,300.068 368.375,300.944 367.648 C 301.560 367.136,301.601 361.664,301.504 293.157 L 301.400 219.218 300.291 218.109 L 299.182 217.000 193.858 216.897 L 88.534 216.794 87.567 215.766 C 86.627 214.767,86.596 214.529,86.475 207.363 L 86.350 199.988 87.544 198.794 L 88.738 197.600 203.600 197.600 L 318.462 197.600 319.637 198.776 " stroke="none" fill="#c4c4cc" fill-rule="evenodd"></path><path id="path4" d="M53.309 27.482 C 52.375 28.907,52.182 386.268,53.114 387.900 L 53.628 388.800 97.365 388.800 C 131.886 388.800,141.182 388.695,141.481 388.300 C 142.754 386.620,142.800 384.543,142.800 328.691 L 142.800 272.876 141.926 271.238 L 141.052 269.600 133.926 269.600 L 126.800 269.600 125.200 271.200 L 123.600 272.800 123.600 320.192 L 123.600 367.584 121.987 368.407 C 119.573 369.638,72.616 369.482,71.242 368.238 L 70.400 367.476 70.400 206.952 L 70.400 46.428 71.300 45.914 C 72.749 45.086,120.548 45.172,122.200 46.005 L 123.400 46.611 123.600 95.573 L 123.800 144.535 125.000 145.238 C 126.935 146.372,140.859 146.341,142.000 145.200 C 143.267 143.933,143.259 30.468,141.992 27.984 L 141.184 26.400 97.601 26.400 L 54.018 26.400 53.309 27.482 M265.346 27.500 C 264.628 28.559,264.593 31.024,264.400 94.218 C 264.211 156.168,264.160 159.896,263.491 160.918 L 262.782 162.000 185.975 162.000 L 109.169 162.000 107.584 160.431 L 106.000 158.863 105.998 111.531 C 105.996 80.805,105.853 63.688,105.590 62.741 C 104.906 60.276,104.056 60.000,97.142 60.000 C 89.577 60.000,88.518 60.305,88.195 62.576 C 87.673 66.249,88.179 178.739,88.720 179.280 C 89.144 179.704,106.986 179.800,185.115 179.800 L 280.989 179.800 281.595 178.600 C 282.129 177.541,282.200 168.654,282.200 103.200 L 282.200 29.000 281.273 27.700 L 280.346 26.400 273.219 26.400 L 266.092 26.400 265.346 27.500 M303.034 28.250 L 302.000 30.101 302.002 104.550 L 302.004 179.000 303.222 180.300 L 304.441 181.600 311.391 181.600 L 318.342 181.600 319.171 180.546 L 320.000 179.492 320.000 113.216 L 320.000 46.939 320.926 46.070 C 322.315 44.764,334.954 44.735,337.053 46.033 L 338.400 46.865 338.404 215.933 C 338.407 308.920,338.518 385.659,338.651 386.464 C 338.973 388.412,340.515 388.800,347.928 388.800 C 354.233 388.800,354.246 388.794,355.078 385.644 C 355.457 384.209,355.569 344.599,355.582 206.950 L 355.600 30.101 354.566 28.250 L 353.532 26.400 328.800 26.400 L 304.068 26.400 303.034 28.250 M141.402 28.900 C 141.521 29.395,141.570 55.720,141.510 87.400 L 141.400 145.000 134.291 145.109 C 129.842 145.178,126.886 145.060,126.391 144.795 C 125.610 144.377,125.600 143.778,125.600 95.661 L 125.600 46.950 124.374 45.775 L 123.148 44.600 97.154 44.489 L 71.161 44.378 69.979 45.559 L 68.797 46.741 68.899 207.362 L 69.000 367.982 70.016 368.998 C 71.651 370.633,74.169 370.796,97.800 370.792 C 122.160 370.787,122.488 370.758,124.474 368.379 L 125.600 367.030 125.613 320.015 C 125.626 274.624,125.653 272.969,126.377 272.100 C 127.103 271.230,127.359 271.200,134.117 271.200 C 141.027 271.200,141.109 271.210,141.348 272.100 C 141.669 273.298,141.671 384.745,141.350 386.350 L 141.100 387.600 97.569 387.600 L 54.038 387.600 53.621 386.100 C 53.039 384.005,53.032 29.861,53.614 28.774 C 54.020 28.016,54.931 28.000,97.606 28.000 L 141.185 28.000 141.402 28.900 M280.643 28.700 C 281.389 29.682,281.461 174.613,280.717 177.394 L 280.234 179.200 186.302 179.200 L 92.370 179.200 90.585 177.363 L 88.800 175.527 88.800 120.078 L 88.800 64.630 90.483 62.915 L 92.167 61.200 97.475 61.200 L 102.784 61.200 103.592 62.784 C 104.389 64.347,104.400 64.999,104.400 111.723 C 104.400 165.353,104.103 160.981,107.895 163.100 C 109.566 164.034,262.887 163.809,263.736 162.871 C 265.638 160.769,265.591 162.523,265.596 93.733 C 265.598 58.276,265.709 28.981,265.843 28.633 C 266.228 27.629,279.877 27.691,280.643 28.700 M353.520 28.480 C 354.183 29.143,354.223 384.441,353.561 386.340 L 353.122 387.600 347.876 387.600 L 342.630 387.600 340.915 385.917 L 339.200 384.233 339.200 215.361 C 339.200 49.742,339.185 46.470,338.436 45.544 C 337.224 44.046,321.467 43.838,320.091 45.303 L 319.202 46.249 319.101 113.025 L 319.000 179.800 311.400 179.800 L 303.800 179.800 303.699 104.442 C 303.625 49.075,303.717 28.941,304.048 28.542 C 304.670 27.792,352.772 27.732,353.520 28.480 M87.862 199.131 C 86.670 200.448,86.892 214.371,88.123 215.527 L 89.045 216.394 194.903 216.497 C 281.117 216.581,300.857 216.696,301.280 217.120 C 301.702 217.542,301.820 231.728,301.904 292.554 L 302.008 367.469 301.162 368.234 C 299.913 369.365,284.438 369.410,283.314 368.286 C 282.636 367.608,282.590 364.267,282.400 302.086 C 282.225 244.682,282.125 236.452,281.595 235.400 L 280.989 234.200 184.705 234.099 L 88.421 233.998 87.811 235.179 C 86.910 236.921,86.880 354.060,87.780 356.213 L 88.359 357.600 95.618 357.600 C 103.918 357.600,104.787 357.355,105.554 354.794 C 105.871 353.737,106.000 339.145,106.000 304.268 L 106.000 255.229 107.493 254.214 L 108.986 253.200 186.047 253.200 L 263.108 253.200 263.747 254.175 C 264.325 255.057,264.396 261.478,264.493 321.133 C 264.597 385.378,264.620 387.138,265.362 387.958 C 266.122 388.798,266.195 388.800,292.448 388.800 L 318.772 388.800 319.286 387.900 C 320.181 386.333,320.237 200.125,319.343 199.137 C 318.303 197.988,88.902 197.982,87.862 199.131 M318.720 199.680 C 319.361 200.321,319.419 383.796,318.779 386.100 L 318.362 387.600 292.231 387.600 L 266.100 387.600 265.850 386.350 C 265.713 385.663,265.600 355.955,265.600 320.334 C 265.600 247.324,265.832 252.765,262.701 252.203 C 261.986 252.075,226.832 252.021,184.582 252.085 C 100.004 252.212,106.731 252.019,104.913 254.370 C 104.536 254.857,104.423 266.081,104.413 303.867 C 104.400 351.535,104.381 352.779,103.614 354.567 L 102.828 356.400 95.822 356.400 L 88.815 356.400 88.508 355.300 C 88.119 353.909,88.099 236.847,88.487 235.900 C 88.935 234.810,280.124 234.810,280.657 235.900 C 280.846 236.285,281.090 266.245,281.200 302.477 L 281.400 368.354 282.307 369.199 C 284.819 371.540,299.994 371.388,302.384 368.998 L 303.400 367.982 303.522 296.291 C 303.654 218.405,303.641 217.678,302.143 216.179 C 301.604 215.641,301.127 215.158,301.082 215.107 C 301.037 215.056,253.120 214.921,194.600 214.807 L 88.200 214.600 88.091 207.452 C 88.015 202.520,88.123 200.134,88.440 199.752 C 89.074 198.988,317.956 198.916,318.720 199.680 " stroke="none" fill="#747c84" fill-rule="evenodd"></path></g></svg>